<?xml version="1.0" encoding="UTF-8"?>
<svg id="Capa_1" xmlns="http://www.w3.org/2000/svg" viewBox="0 0 54 59">
  <defs>
    <style>
      .cls-1 {
        fill: #ffce67;
      }
    </style>
  </defs>
  <g id="Designs">
    <g id="player-two">
      <circle id="Oval-Copy-21" cx="27" cy="27" r="27"/>
      <circle id="Oval-Copy-40" cx="27" cy="32" r="27"/>
      <circle id="Oval-Copy-11" class="cls-1" cx="27" cy="27" r="24"/>
    </g>
  </g>
  <g>
    <path d="M38.7,22.59c0,2.35.12,4.71-.03,7.04-.26,4.15-2.02,7.44-6.03,9.15-.74.32-1.58.56-2.38.58-2.47.04-4.97.21-7.4-.14-4.01-.58-6.89-3.83-7.42-7.96-.46-3.54-.03-7.03.69-10.49.37-1.78.91-3.52,1.41-5.27.1-.33.35-.62.53-.93.27.24.58.44.82.71.86,1.01,1.7,2.03,2.53,3.06.26.33.53.44.96.36,3.58-.63,7.16-.55,10.74-.02.58.09.97,0,1.37-.46.96-1.12,1.97-2.19,2.98-3.27.17-.18.44-.26.67-.38.08.24.24.49.24.73.02,2.42.01,4.85.01,7.27h.31s0,.02,0,.02ZM36.96,25.64c-.2,3.05-1.39,4.65-3.87,4.88-.86.08-1.84-.21-2.63-.61-1.25-.62-1.84-1.83-2.07-3.25-.77,0-1.49.01-2.21,0-.43-.01-.63.07-.74.58-.42,1.98-2.18,3.36-4.14,3.36s-3.67-1.36-4.13-3.29c-.12-.52-.11-1.08-.16-1.63-.6-.2-.96-.06-.95.65.04,1.69-.08,3.41.16,5.08.55,3.9,3.27,6.66,7.17,7.17,2.02.27,4.09.17,6.13.13,2.65-.06,4.82-1.17,6.44-3.29,2.24-2.93,2.13-6.32,1.95-9.78,0,0-.95,0-.95,0ZM16.06,24.78c.75.1,1.21,0,1.38-.31,1-1.81,2.59-2.66,4.51-2.41,1.7.22,3.06,1.54,3.56,3.41.05.18.28.43.43.44.82.04,1.63.02,2.46.02.04-.22.07-.37.1-.51.37-1.71,1.78-3.08,3.44-3.35,1.75-.29,3.56.5,4.38,2.07.39.74.84.86,1.62.66-.1-2.91-.21-5.83-.32-8.92-1.05,1.14-1.99,2.14-2.89,3.17-.36.41-.72.52-1.24.43-3.62-.6-7.26-.69-10.88-.07-.89.15-1.38-.06-1.88-.74-.75-1.01-1.6-1.94-2.4-2.91-.09,0-.19.02-.28.03-.66,2.98-1.32,5.96-1.99,8.99Z"/>
    <path d="M26.46,35.22v-3.87c0-.18-.16-.38-.29-.52-.37-.41-.28-.8.16-.96.39-.14.89-.16,1.28-.03.58.18.63.79.09,1.05-.49.24-.56.58-.55,1.02.04,1.07.02,2.14.14,3.2.11.97.68,1.23,1.59.9.15-.05.34.03.51.05-.06.19-.05.46-.18.56-.56.43-1.15.3-1.76.06-.27-.1-.61-.02-.92-.01-.55.01-1.1.07-1.64.02-.12-.01-.22-.37-.32-.56.21-.03.44-.13.61-.07.81.29,1.42-.06,1.29-.83h-.01Z"/>
  </g>
</svg>