<?xml version="1.0" encoding="UTF-8"?>
<svg id="Capa_1" xmlns="http://www.w3.org/2000/svg" version="1.1" viewBox="0 0 58 61">
  <!-- Generator: Adobe Illustrator 29.0.0, SVG Export Plug-In . SVG Version: 2.1.0 Build 186)  -->
  <defs>
    <style>
      .st0 {
        fill: #fab716;
      }

      .st0, .st1, .st2, .st3 {
        stroke: #000;
        stroke-miterlimit: 10;
      }

      .st1 {
        fill: #fde208;
      }

      .st2 {
        fill: #e6382e;
      }

      .st3 {
        fill: #4696d2;
      }
    </style>
  </defs>
  <path class="st3" d="M10.4,16.9c0-3.4,2.6-6,6.1-5.9,3.3,0,6,2.7,5.9,6,0,3.3-2.8,6-6.1,5.9-3.3,0-5.9-2.7-5.9-6h0Z"/>
  <path class="st0" d="M36.5,17c0-3.3,2.6-5.9,5.9-6,3.6,0,6.1,2.9,6.1,5.9,0,3.3-2.7,6-6,6s-6-2.6-6-6h0Z"/>
  <path class="st0" d="M42.5,23.9c3.4,0,6,2.6,6,5.9,0,3.3-2.7,6-6,6s-6-2.6-6-6c0-3.3,2.6-5.9,6-5.9Z"/>
  <path class="st1" d="M35.4,17c0,3.3-2.7,6-6,6-3.4,0-6-2.6-6-6s2.6-5.9,5.9-6c3.2,0,6,2.6,6,6h0Z"/>
  <path class="st1" d="M35.4,29.8c0,3.3-2.7,6-6,6-3.5,0-6-2.7-6-6.1,0-3.2,2.7-5.8,6.1-5.8,3.3,0,5.9,2.7,5.9,6h0Z"/>
  <path class="st2" d="M16.4,35.8c-3.4,0-6-2.7-5.9-6,0-3.3,2.7-5.9,6.1-5.9,3.3,0,5.9,2.7,5.9,6,0,3.3-2.7,6-6,6h0Z"/>
  <path class="st3" d="M29.4,36.7c3.3,0,6,2.6,6,5.9,0,3.3-2.7,5.9-6,5.9s-6-2.6-6-5.9,2.6-6,6-6h0Z"/>
  <path class="st3" d="M42.5,36.7c3.3,0,6,2.6,6,5.9,0,3.3-2.6,6-5.9,6-3.4,0-6.1-2.6-6.1-5.9,0-3.3,2.6-5.9,6-5.9h0Z"/>
  <path class="st2" d="M16.4,36.7c3.3,0,6,2.6,6,5.9,0,3.3-2.7,6-6,6-3.3,0-6-2.7-6-5.9,0-3.4,2.6-5.9,6-5.9Z"/>
</svg>