<?xml version="1.0" encoding="UTF-8"?>
<svg xmlns="http://www.w3.org/2000/svg" version="1.1" viewBox="0 0 38 36">
  <defs>
    <style>
      .cls-1 {
        fill: #e6382e;
        stroke: #000;
        stroke-width: 3px;
      }

      .cls-1, .cls-2 {
        fill-rule: evenodd;
      }
    </style>
  </defs>
  <!-- Generator: Adobe Illustrator 28.7.1, SVG Export Plug-In . SVG Version: 1.2.0 Build 142)  -->
  <g>
    <g id="Capa_1">
      <g>
        <path id="b" class="cls-2" d="M5,23.6l10.9,8.2c1.8,1.3,4.2,1.3,6,0l11.1-8.2c1.3-.9,2-2.4,2-4v-6.6c0-2.8-2.2-5-5-5H8c-2.8,0-5,2.2-5,5v6.6c0,1.6.7,3.1,2,4Z"/>
        <path class="cls-1" d="M20.3,34.3c.5,0,1-.2,1.3-.4l13.9-10.3c.6-.4.9-1.1.9-1.8v-8.8c0-1.7-.7-3.4-1.9-4.6-1.2-1.2-2.9-1.9-4.6-1.9H8c-1.7,0-3.4.7-4.6,1.9-1.2,1.2-1.9,2.9-1.9,4.6v8.8c0,.7.3,1.4.9,1.8l13.8,10.3c.4.3.8.4,1.3.4h2.8Z"/>
      </g>
    </g>
  </g>
</svg>