<?xml version="1.0" encoding="UTF-8"?>
<svg xmlns="http://www.w3.org/2000/svg" version="1.1" viewBox="0 0 38 36">
  <defs>
    <style>
      .cls-1 {
        fill: #fde208;
        stroke: #000;
        stroke-width: 3px;
      }

      .cls-1, .cls-2 {
        fill-rule: evenodd;
      }
    </style>
  </defs>
  <!-- Generator: Adobe Illustrator 28.7.1, SVG Export Plug-In . SVG Version: 1.2.0 Build 142)  -->
  <g>
    <g id="Capa_1">
      <g>
        <path id="b" class="cls-2" d="M5,23.6l10.9,8.2c1.8,1.3,4.2,1.3,6,0l11.1-8.2c1.3-.9,2-2.4,2-4v-6.6c0-2.8-2.2-5-5-5H8c-2.8,0-5,2.2-5,5v6.6c0,1.6.7,3.1,2,4Z"/>
        <path class="cls-1" d="M20.5,34.3c.3,0,.7-.1,1-.3l14.4-10.6c.4-.3.6-.8.6-1.3v-9.1c0-1.7-.7-3.4-1.9-4.6-1.2-1.2-2.9-1.9-4.6-1.9H8c-1.7,0-3.4.7-4.6,1.9-1.2,1.2-1.9,2.9-1.9,4.6v9.1c0,.5.2,1,.6,1.3l14.2,10.6c.3.2.6.3.9.3h3.3Z"/>
      </g>
    </g>
  </g>
</svg>