<?xml version="1.0" encoding="UTF-8"?>
<svg xmlns="http://www.w3.org/2000/svg" version="1.1" viewBox="0 0 54 59">
  <defs>
    <style>
      .cls-1 {
        fill: #e6382e;
      }
    </style>
  </defs>
  <!-- Generator: Adobe Illustrator 28.7.1, SVG Export Plug-In . SVG Version: 1.2.0 Build 142)  -->
  <g>
    <g id="Capa_1">
      <g id="Designs">
        <g id="player-one">
          <circle id="Oval-Copy-21" cx="27" cy="27" r="27"/>
          <circle id="Oval-Copy-40" cx="27" cy="32" r="27"/>
          <circle id="Oval-Copy-11" class="cls-1" cx="27" cy="27" r="24"/>
          <path d="M42.1,25.6c0,.1.9-.3,1.3-.4.4-.1.8,0,1,.4.1.5,0,.8-.5.9-.4.1-.8.3-1.3.4,0,.4.2.7.3,1,.7.3,1.8-.4,1.8.8,0,1-1,.5-1.5.8,0,.7-.2,1.3.7,1.6.2,0,.5.6.5.8,0,.5-.5.5-.9.4-.2,0-.3-.1-.4-.1-.6,1.1-1.1,2.3-1.8,3.3-1.7,2.4-4.2,3.7-7,4.5-5,1.5-10.1,1.5-15.1-.3-3.8-1.3-6.7-3.6-7.8-7.7-.2,0-.5.2-.7.2-.3,0-.7-.2-.9-.5,0-.1.2-.7.4-.8.9-.2.9-.8.8-1.6-.3,0-.6,0-.9,0s-.6-.4-.6-.7c0-.2.4-.6.6-.7.4-.1.8,0,1.2,0,.1-.4.2-.7.3-1-.4-.1-.9-.3-1.3-.4-.5-.1-.8-.4-.6-.9.2-.5.6-.5,1.1-.4.4.1.9.3,1.4.4.2-.5.5-1,.7-1.6,0-.2-.1-.5-.3-.7-1.1-1.1-1.9-2.3-1.9-3.9,0-2.8,2.6-4.7,5.4-4,.8.2,1.3,0,1.9-.3,2.6-1.7,5.6-2.3,8.7-2.4,3.7,0,7.2.6,10.2,2.7.2.2.7.1,1,0,2.8-.7,5,.5,5.7,3.1.4,1.6-.2,3-1.2,4.2-1.1,1.3-1.1,1.3,0,2.8,0,0,0,0,0,0ZM14.8,22.8c-.7,1.7-1.4,3.4-2.1,5.1-.5,1.2-.5,2.5-.1,3.8.8,3.2,2.9,5.2,5.9,6.4,4.1,1.7,8.4,2.1,12.8,1.3,2.7-.5,5.3-1.3,7.4-3.2,2.2-1.9,3.4-4.4,2.9-7.4-.2-1.2-.8-2.4-1.2-3.5-.2-.4-.3-.8-.5-1.2-.2-.4-.3-.8-.5-1.3-.3,2.5-.8,4.8-3.2,5.9-2.2,1-4.5.7-6.4-.6,0,.5,0,1-.3,1.5-.2.5-.6.9-.9,1.3,1.4,2.1,4.8,3.2,7.4,2.3,1.9-.6,2.7-2.7,1.4-4-.2-.2,0-.6,0-1,.3,0,.8,0,1,.1.8.8,1.2,1.9,1,3.1-.4,2-2.1,3.3-4.4,3.4-3.2.2-5.8-.8-7.8-3.4-1,1.3-2.2,2.3-3.8,2.9-2.1.8-4.2.9-6.3-.1-2.3-1.1-2.9-4.1-1.2-5.8.2-.2.8-.3,1-.2.4.2.4.7,0,1-1.4,1.6-.2,3.5,1.3,3.9,1.2.3,2.3.4,3.5.1,1.8-.4,3.2-1.2,4.3-2.8-1.2-.5-1.6-1.4-1.3-2.6-2.1,1.4-4.4,1.8-6.6.8-2.4-1.1-2.9-3.4-3.3-5.9h0ZM15.6,16.9c-1.9-.4-3.1.3-3.6,1.9-.4,1.2.2,2.9,1.4,3.5.2-.5.2-1,.5-1.4.1-.2.5-.5.8-.5.4,0,.8,0,1.3.2,2.7.5,5.5.9,8.2,1.4,1.5.3,3.1.5,4.7.2,1.8-.4,3.6-.6,5.5-.9,1.5-.2,3-.5,4.5-.7,1.2-.2,1.2-.2,1.5,1,0,.3.2.5.3.8,1.5-1.3,1.9-2.9,1.1-4.2-.8-1.2-2-1.7-3.3-1.2.2.3.4.5.6.8.3.4.4.8,0,1.1-.5.3-.8,0-1.1-.3-1-1.4-2.3-2.3-3.8-3-3.2-1.4-6.6-1.6-10.1-1.1-3.1.5-5.9,1.6-7.9,4.2-.1.2-.8.3-.9.2-.2-.2-.3-.7-.2-1,.1-.4.4-.6.7-1h0ZM26,26.2h2.1c0-.8-.6-.7-1.2-.7-.6,0-.7.4-.9.7h0Z"/>
        </g>
      </g>
    </g>
  </g>
</svg>