<?xml version="1.0" encoding="UTF-8"?>
<svg xmlns="http://www.w3.org/2000/svg" version="1.1" viewBox="0 0 197 165">
  <defs>
    <style>
      .cls-1 {
        fill: #fde208;
        stroke: #000;
        stroke-width: 3px;
      }

      .cls-1, .cls-2 {
        fill-rule: evenodd;
      }
    </style>
  </defs>
  <!-- Generator: Adobe Illustrator 28.7.1, SVG Export Plug-In . SVG Version: 1.2.0 Build 142)  -->
  <g>
    <g id="Capa_1">
      <g>
        <path id="b" class="cls-2" d="M15.2,36.8L90.3,5.3c4.9-2.1,10.5-2.1,15.5,0l76,31.6c7.5,3.1,12.3,10.4,12.3,18.5v76.7c0,11-9,20-20,20H23c-11,0-20-9-20-20V55.3c0-8,4.8-15.3,12.2-18.4Z"/>
        <path class="cls-1" d="M89.7,3.9c5.3-2.2,11.3-2.2,16.6,0l76,31.6c3.9,1.6,7.3,4.4,9.6,7.9,2.4,3.5,3.6,7.7,3.6,11.9v76.7c0,5.7-2.3,11.2-6.3,15.2-4,4-9.5,6.3-15.2,6.3H23c-5.7,0-11.2-2.3-15.2-6.3-4-4-6.3-9.5-6.3-15.2V55.3c0-4.3,1.3-8.4,3.6-11.9,2.3-3.5,5.7-6.3,9.6-7.9L89.7,3.9Z"/>
      </g>
    </g>
  </g>
</svg>