<?xml version="1.0" encoding="UTF-8"?>
<svg xmlns="http://www.w3.org/2000/svg" version="1.1" viewBox="0 0 197 165">
  <defs>
    <style>
      .cls-1 {
        fill: #e6382e;
        stroke: #000;
        stroke-width: 3px;
      }

      .cls-1, .cls-2 {
        fill-rule: evenodd;
      }

      .cls-3 {
        fill: #fff;
      }

      .cls-4 {
        isolation: isolate;
      }
    </style>
  </defs>
  <!-- Generator: Adobe Illustrator 28.7.1, SVG Export Plug-In . SVG Version: 1.2.0 Build 142)  -->
  <g>
    <g id="Capa_1">
      <g>
        <g>
          <g class="cls-4">
            <g class="cls-4">
              <path class="cls-3" d="M59.6,59v-3.9l-3.8-7.3h2.4l2.4,4.8h.3l2.4-4.8h2.4l-3.8,7.3v3.9h-2.1Z"/>
              <path class="cls-3" d="M71,59.2c-1.4,0-2.5-.4-3.4-1.2s-1.2-1.9-1.2-3.3v-2.7c0-1.4.4-2.5,1.2-3.3s2-1.2,3.4-1.2,2.5.4,3.4,1.2,1.2,1.9,1.2,3.3v2.7c0,1.4-.4,2.5-1.2,3.3s-2,1.2-3.4,1.2ZM71,57.3c.8,0,1.4-.2,1.8-.7.4-.5.7-1.1.7-1.8v-2.8c0-.8-.2-1.4-.7-1.8-.4-.5-1.1-.7-1.8-.7s-1.4.2-1.8.7c-.4.5-.7,1.1-.7,1.8v2.8c0,.8.2,1.4.7,1.8.4.5,1.1.7,1.8.7Z"/>
              <path class="cls-3" d="M81.8,59.2c-.9,0-1.7-.2-2.4-.5-.7-.3-1.2-.8-1.5-1.4-.3-.6-.5-1.4-.5-2.2v-7.3h2.1v7.3c0,.7.2,1.2.6,1.6.4.4,1,.6,1.7.6s1.3-.2,1.7-.6c.4-.4.6-.9.6-1.6v-7.3h2.1v7.3c0,.9-.2,1.6-.5,2.2-.3.6-.8,1.1-1.5,1.4-.7.3-1.4.5-2.4.5Z"/>
              <path class="cls-3" d="M88.2,59v-11.2h4.9c.7,0,1.3.1,1.8.4.5.2.9.6,1.2,1s.4,1,.4,1.6v.2c0,.7-.2,1.2-.5,1.6-.3.4-.7.7-1.2.9v.3c.4,0,.8.2,1,.4.2.3.4.6.4,1.1v3.7h-2.1v-3.4c0-.3,0-.5-.2-.6-.1-.2-.4-.2-.7-.2h-2.9v4.2h-2.1ZM90.4,52.9h2.5c.5,0,.9-.1,1.2-.4.3-.3.4-.6.4-1.1v-.2c0-.4-.1-.8-.4-1.1-.3-.3-.7-.4-1.2-.4h-2.5v3.1Z"/>
              <path class="cls-3" d="M104.5,59v-9.3h-3.3v-1.9h8.6v1.9h-3.3v9.3h-2.1Z"/>
              <path class="cls-3" d="M115.7,59.2c-.9,0-1.7-.2-2.4-.5-.7-.3-1.2-.8-1.5-1.4-.3-.6-.5-1.4-.5-2.2v-7.3h2.1v7.3c0,.7.2,1.2.6,1.6.4.4,1,.6,1.7.6s1.3-.2,1.7-.6c.4-.4.6-.9.6-1.6v-7.3h2.1v7.3c0,.9-.2,1.6-.5,2.2s-.8,1.1-1.5,1.4-1.4.5-2.4.5Z"/>
              <path class="cls-3" d="M122.1,59v-11.2h4.9c.7,0,1.3.1,1.8.4.5.2.9.6,1.2,1s.4,1,.4,1.6v.2c0,.7-.2,1.2-.5,1.6-.3.4-.7.7-1.2.9v.3c.4,0,.8.2,1,.4.2.3.4.6.4,1.1v3.7h-2.1v-3.4c0-.3,0-.5-.2-.6-.1-.2-.4-.2-.7-.2h-2.9v4.2h-2.1ZM124.2,52.9h2.5c.5,0,.9-.1,1.2-.4.3-.3.4-.6.4-1.1v-.2c0-.4-.1-.8-.4-1.1-.3-.3-.7-.4-1.2-.4h-2.5v3.1Z"/>
              <path class="cls-3" d="M132.2,59v-11.2h4l2.2,9.8h.3v-9.8h2.1v11.2h-4l-2.2-9.8h-.3v9.8h-2.1Z"/>
            </g>
          </g>
          <g class="cls-4">
            <g class="cls-4">
              <path class="cls-3" d="M69.3,120v-33.9h-1l-5.3,12.4h-7.5l8-17.7h12.9v39.2h-7.2Z"/>
              <path class="cls-3" d="M97.2,120.8c-3.1,0-5.7-.5-7.9-1.6-2.2-1.1-3.9-2.6-5.1-4.6-1.2-2-1.8-4.3-1.8-6.9v-.6h7.3v.5c0,1.9.6,3.5,1.9,4.8,1.2,1.3,3.1,2,5.6,2s4.4-.7,5.7-2c1.3-1.3,2-3.1,2-5.2v-.6c0-2.1-.7-3.8-2-5-1.3-1.2-3-1.8-5-1.8s-2,.1-2.7.4c-.7.3-1.3.7-1.7,1.1-.4.4-.8.9-1.1,1.3h-8.7v-22h26.8v6.5h-19.6v9.6h1c.4-.5.9-1,1.5-1.4.6-.4,1.5-.8,2.5-1.1,1-.3,2.2-.4,3.6-.4,2.3,0,4.4.5,6.3,1.5s3.4,2.4,4.6,4.3c1.1,1.9,1.7,4.2,1.7,7v.7c0,2.8-.6,5.2-1.8,7.2s-2.9,3.6-5.1,4.7-4.8,1.7-7.9,1.7Z"/>
              <path class="cls-3" d="M129.2,120.8c-3.6,0-6.6-.8-8.9-2.4-2.3-1.6-3.7-3.8-4.2-6.7l6.5-1.7c.3,1.3.7,2.3,1.3,3.1.6.7,1.4,1.3,2.3,1.6.9.3,1.9.5,3,.5,1.6,0,2.9-.3,3.6-.9s1.2-1.3,1.2-2.2-.4-1.5-1.1-2c-.7-.5-1.9-.8-3.6-1.1l-1.6-.3c-1.9-.4-3.7-.9-5.3-1.5-1.6-.7-2.9-1.6-3.9-2.7s-1.5-2.7-1.5-4.5c0-2.8,1-4.9,3-6.4s4.7-2.2,8-2.2,5.7.7,7.7,2.1c2.1,1.4,3.4,3.2,4,5.4l-6.6,2c-.3-1.4-.9-2.4-1.8-3-.9-.6-2-.9-3.4-.9s-2.4.2-3.1.7c-.7.5-1.1,1.1-1.1,1.9s.4,1.6,1.1,2c.7.4,1.8.8,3,1l1.6.3c2.1.4,4,.9,5.7,1.5,1.7.6,3,1.5,4,2.6,1,1.1,1.5,2.7,1.5,4.6,0,2.9-1.1,5.2-3.2,6.7s-4.9,2.4-8.5,2.4Z"/>
            </g>
          </g>
        </g>
        <path id="b" class="cls-2" d="M15.2,36.8L90.3,5.3c4.9-2.1,10.5-2.1,15.5,0l76,31.6c7.5,3.1,12.3,10.4,12.3,18.5v76.7c0,11-9,20-20,20H23c-11,0-20-9-20-20V55.3c0-8,4.8-15.3,12.2-18.4Z"/>
        <path class="cls-1" d="M89.7,3.9c5.3-2.2,11.3-2.2,16.6,0l76,31.6c3.9,1.6,7.3,4.4,9.6,7.9,2.4,3.5,3.6,7.7,3.6,11.9v76.7c0,5.7-2.3,11.2-6.3,15.2-4,4-9.5,6.3-15.2,6.3H23c-5.7,0-11.2-2.3-15.2-6.3-4-4-6.3-9.5-6.3-15.2V55.3c0-4.3,1.3-8.4,3.6-11.9,2.3-3.5,5.7-6.3,9.6-7.9L89.7,3.9Z"/>
      </g>
    </g>
  </g>
</svg>